<svg width="11" height="10" viewBox="0 0 11 10" fill="none" xmlns="http://www.w3.org/2000/svg">
<g id="Group">
<path id="Vector" d="M8.68964 0.0114832C8.57658 0.0303278 8.47058 0.110417 8.42346 0.209352C8.38813 0.282374 8.38578 0.687531 8.39049 5.02178L8.39755 9.75177L8.45173 9.8295C8.56009 9.98026 8.58835 9.98733 9.28325 9.99439C9.70961 9.99911 9.94281 9.99439 10.0135 9.97555C10.1383 9.94022 10.2561 9.82479 10.2914 9.70466C10.3244 9.58688 10.3268 0.447264 10.2938 0.308286C10.2679 0.192863 10.2066 0.108062 10.103 0.0468168C10.03 0.00441647 9.97579 0.00206089 9.39867 -0.000294685C9.05476 -0.00265026 8.73676 0.00206089 8.68964 0.0114832Z" fill="white"/>
<path id="Vector_2" d="M5.80685 1.48225C5.71969 1.5223 5.64196 1.60474 5.60898 1.6919C5.59014 1.73901 5.58307 2.97098 5.58307 5.71522C5.58307 10.0165 5.576 9.75973 5.71263 9.88929C5.81627 9.98351 5.93641 10 6.55357 10C7.17072 10 7.27437 9.98587 7.38273 9.88693C7.52406 9.75502 7.51464 10.0212 7.51464 5.71286C7.51464 1.81439 7.51464 1.75315 7.46753 1.66128C7.44162 1.61181 7.38744 1.54586 7.34504 1.51523C7.2673 1.46105 7.25788 1.46105 6.57241 1.45634C6.02827 1.45163 5.86103 1.45634 5.80685 1.48225Z" fill="white"/>
<path id="Vector_3" d="M3.13997 3.12173C3.001 3.13586 2.90913 3.19475 2.83846 3.31253C2.79135 3.39027 2.79135 3.44209 2.78428 6.44309C2.77957 8.12025 2.78428 9.54773 2.79135 9.61604C2.80784 9.76209 2.87851 9.8728 2.99157 9.93875C3.06931 9.98586 3.10935 9.98822 3.75713 9.98822C4.39785 9.98822 4.44496 9.98586 4.52034 9.94111C4.56509 9.9152 4.62163 9.86337 4.6499 9.82804L4.69936 9.76209V6.5538V3.34551L4.64754 3.27249C4.54389 3.12644 4.48265 3.11466 3.83958 3.11231C3.52158 3.10995 3.20829 3.11466 3.13997 3.12173Z" fill="white"/>
<path id="Vector_4" d="M0.212001 4.82156C0.141334 4.85689 0.0871561 4.90872 0.0541781 4.96996L0 5.06418V7.38207V9.69759L0.0518226 9.79182C0.0800894 9.84128 0.141334 9.90724 0.188446 9.93551C0.26618 9.98497 0.299158 9.98733 0.897473 9.99439C1.3097 9.99911 1.55939 9.99439 1.62299 9.97555C1.75019 9.94257 1.87739 9.82715 1.90801 9.72115C1.94099 9.59866 1.94099 5.12543 1.90566 5.03592C1.87032 4.93698 1.74548 4.8192 1.6489 4.79329C1.60414 4.78152 1.28614 4.76974 0.942229 4.76974C0.339202 4.76974 0.313291 4.77209 0.212001 4.82156Z" fill="white"/>
</g>
</svg>
