<svg width="21" height="10" viewBox="0 0 21 10" fill="none" xmlns="http://www.w3.org/2000/svg">
<g id="Group">
<path id="Vector" d="M1.36943 0.14285C0.814258 0.346414 0.555176 0.568484 0.268335 1.05889L0 1.53079V4.99139V8.44273L0.240576 8.89613C0.508911 9.37728 0.980811 9.75665 1.48972 9.9047C1.97088 10.0435 16.1741 10.025 16.7293 9.88619C17.2752 9.7474 17.9507 9.09969 18.1172 8.55377C18.2745 8.0171 18.2745 1.98418 18.1172 1.44751C17.9507 0.901589 17.2752 0.253884 16.7293 0.11509C16.0631 -0.0514622 1.83208 -0.0329561 1.36943 0.14285ZM16.6553 1.00337C16.8311 1.08665 17.0717 1.29947 17.1827 1.47527C17.3955 1.78987 17.3955 1.81763 17.3955 5.00064C17.3955 8.18365 17.3955 8.21141 17.1827 8.52601C16.7386 9.20147 17.1642 9.16446 9.08638 9.16446C1.05483 9.16446 1.38794 9.19222 1.00857 8.57227C0.842017 8.30394 0.832764 8.05411 0.832764 5.01915C0.832764 2.34505 0.860523 1.7066 0.962305 1.49378C1.11035 1.21619 1.4157 0.984866 1.71179 0.901589C1.81358 0.883083 5.14463 0.855325 9.11414 0.846072C15.8133 0.836819 16.3499 0.846072 16.6553 1.00337Z" fill="white"/>
<path id="Vector_2" d="M2.0824 1.78095C1.67527 2.01228 1.67527 2.05854 1.66602 4.97322C1.66602 6.5092 1.69377 7.83237 1.72153 7.91565C1.87883 8.32278 1.99912 8.33203 7.77295 8.33203H13.2322V5.00097V1.66992H7.75445C3.80344 1.67917 2.21194 1.70693 2.0824 1.78095Z" fill="white"/>
<path id="Vector_3" d="M19.0605 5.00198V7.04688L19.2734 6.99136C19.6712 6.87107 20.1894 6.44543 20.43 6.02905C20.7816 5.42761 20.7816 4.57634 20.43 3.9749C20.1894 3.55852 19.6712 3.13288 19.2734 3.0126L19.0605 2.95708V5.00198Z" fill="white"/>
</g>
</svg>
