<svg width="13" height="10" viewBox="0 0 13 10" fill="none" xmlns="http://www.w3.org/2000/svg">
<g id="Group">
<path id="Vector" d="M5.11921 0.0666218C4.225 0.22866 3.28277 0.534732 2.5566 0.900819C1.97447 1.19489 1.00824 1.89705 0.504119 2.37717L0 2.86328L0.354084 3.18736C0.546129 3.3734 0.732173 3.51744 0.756178 3.52344C0.780184 3.52344 0.972229 3.3614 1.17628 3.15735C2.14851 2.20313 3.29478 1.56698 4.68711 1.20089C5.40127 1.01485 6.7996 0.94883 7.58579 1.05686C9.12215 1.27291 10.5925 1.98107 11.7568 3.06133L12.2429 3.51744L12.621 3.17536L12.9991 2.83327L12.4889 2.35316C11.3547 1.27291 9.93834 0.522729 8.35997 0.150642C7.69382 -0.00539517 5.79737 -0.0534065 5.11921 0.0666218Z" fill="white"/>
<path id="Vector_2" d="M5.23887 2.1054C4.73475 2.21343 3.99658 2.45948 3.60048 2.65753C2.84431 3.03562 1.52399 4.06186 1.58401 4.2299C1.59601 4.25991 1.76405 4.42795 1.9501 4.60199L2.29818 4.91406L2.64026 4.57198C3.28241 3.94783 4.0986 3.47972 5.04082 3.20966C5.44892 3.08963 5.64097 3.07163 6.55918 3.07163C7.54942 3.07763 7.63944 3.08963 8.11955 3.24567C9.00176 3.53974 9.70993 3.94783 10.3581 4.54197C10.5441 4.71602 10.7242 4.84205 10.7542 4.83004C10.8442 4.80004 11.4203 4.2419 11.4203 4.18189C11.4203 4.10387 10.6461 3.41371 10.2621 3.14965C9.76994 2.81357 8.89973 2.41147 8.26959 2.22543C7.79547 2.0874 7.60343 2.06339 6.67921 2.04539C5.95304 2.03338 5.50893 2.05139 5.23887 2.1054Z" fill="white"/>
<path id="Vector_3" d="M5.97771 4.06396C5.47959 4.11797 4.89146 4.29801 4.39934 4.54407C4.07526 4.70611 3.19305 5.37227 3.10303 5.5163C3.06702 5.57031 3.70318 6.21246 3.7992 6.22447C3.8172 6.22447 3.99724 6.08643 4.18929 5.9184C4.57938 5.58832 5.22153 5.25824 5.68364 5.15021C6.09174 5.04819 7.00395 5.06619 7.42405 5.17422C7.89817 5.30025 8.50431 5.62433 8.8884 5.96041L9.20047 6.23047L9.56056 5.9184C9.7586 5.75036 9.92064 5.58832 9.92064 5.55831C9.92064 5.5343 9.77661 5.38427 9.60857 5.22823C8.61833 4.34002 7.34003 3.92593 5.97771 4.06396Z" fill="white"/>
<path id="Vector_4" d="M6.09174 6.10664C5.71365 6.16065 5.12551 6.44272 4.79544 6.72479L4.56738 6.92283L4.96348 7.27092L5.36557 7.625L5.52761 7.46896C6.03173 6.98885 7.00996 7.00085 7.55009 7.49297C7.67011 7.60099 7.68212 7.59499 8.0482 7.26492C8.41429 6.94084 8.42029 6.92884 8.31827 6.81481C7.84416 6.28668 6.89593 5.98661 6.09174 6.10664Z" fill="white"/>
<path id="Vector_5" d="M6.06781 8.14524C5.45567 8.46932 5.35964 9.32752 5.88777 9.76562C6.28386 10.0897 6.76998 10.0777 7.15407 9.72961C7.56216 9.36353 7.59817 8.75138 7.23809 8.37329C6.90801 8.01921 6.4699 7.93519 6.06781 8.14524Z" fill="white"/>
</g>
</svg>
