<svg width="143" height="143" viewBox="0 0 143 143" fill="none" xmlns="http://www.w3.org/2000/svg">
<g id="Group 14903">
<path id="Ellipse 469" d="M71.5 143C32.0116 143 -4.85146e-06 110.988 -3.12536e-06 71.5C-1.39927e-06 32.0116 32.0116 -4.85146e-06 71.5 -3.12536e-06C110.988 -1.39927e-06 143 32.0116 143 71.5C143 110.988 110.988 143 71.5 143ZM71.5 14.5947C40.0721 14.5947 14.5947 40.072 14.5947 71.5C14.5947 102.928 40.072 128.405 71.5 128.405C102.928 128.405 128.405 102.928 128.405 71.5C128.405 40.0721 102.928 14.5947 71.5 14.5947Z" fill="#454545"/>
<path id="Ellipse 469_2" d="M26.1019 26.1019C23.2521 23.2521 18.5985 23.2307 16.0539 26.356C11.6808 31.7271 8.10301 37.7153 5.44261 44.1381C1.84939 52.8129 -2.71494e-06 62.1105 -3.12536e-06 71.5C-3.53579e-06 80.8895 1.84941 90.1871 5.44261 98.8619C8.10302 105.285 11.6808 111.273 16.0539 116.644C18.5985 119.769 23.2521 119.748 26.1019 116.898C28.9516 114.048 28.9083 109.453 26.4463 106.262C23.384 102.293 20.8529 97.9279 18.9263 93.2767C16.0666 86.3727 14.5947 78.9729 14.5947 71.5C14.5947 64.0271 16.0666 56.6273 18.9263 49.7233C20.8529 45.0721 23.384 40.7072 26.4463 36.7382C28.9083 33.5473 28.9516 28.9516 26.1019 26.1019Z" fill="url(#paint0_linear_0_75)"/>
<path id="Ellipse 470" d="M116.898 116.898C119.748 119.748 124.402 119.769 126.946 116.644C131.313 111.28 134.879 105.31 137.532 98.9224C139.078 95.2004 136.853 91.1129 132.993 89.9544C129.133 88.796 125.107 91.0126 123.464 94.6929C121.627 98.8092 119.307 102.693 116.554 106.262C114.092 109.453 114.048 114.048 116.898 116.898Z" fill="url(#paint1_linear_0_75)"/>
</g>
<defs>
<linearGradient id="paint0_linear_0_75" x1="-62.5" y1="-2.88218e-06" x2="174" y2="156" gradientUnits="userSpaceOnUse">
<stop stop-color="#737DFE"/>
<stop offset="1" stop-color="#FFCAC9"/>
</linearGradient>
<linearGradient id="paint1_linear_0_75" x1="98" y1="59" x2="161.5" y2="155" gradientUnits="userSpaceOnUse">
<stop stop-color="#737DFE"/>
<stop offset="1" stop-color="#FFCAC9"/>
</linearGradient>
</defs>
</svg>
